<?xml version="1.0" encoding="UTF-8" standalone="no"?>
<svg
   id="Layer_1"
   viewBox="0 0 1593.0246 669.70546"
   version="1.1"
   sodipodi:docname="logo.svg"
   width="1593.0245"
   height="669.70544"
   inkscape:version="1.3.2 (091e20e, 2023-11-25, custom)"
   xmlns:inkscape="http://www.inkscape.org/namespaces/inkscape"
   xmlns:sodipodi="http://sodipodi.sourceforge.net/DTD/sodipodi-0.dtd"
   xmlns="http://www.w3.org/2000/svg"
   xmlns:svg="http://www.w3.org/2000/svg">
  <sodipodi:namedview
     id="namedview36"
     pagecolor="#ffffff"
     bordercolor="#000000"
     borderopacity="0.25"
     inkscape:showpageshadow="2"
     inkscape:pageopacity="0.0"
     inkscape:pagecheckerboard="true"
     inkscape:deskcolor="#d1d1d1"
     inkscape:zoom="0.84304774"
     inkscape:cx="806.00418"
     inkscape:cy="333.90755"
     inkscape:window-width="1920"
     inkscape:window-height="1017"
     inkscape:window-x="-8"
     inkscape:window-y="-8"
     inkscape:window-maximized="1"
     inkscape:current-layer="Layer_1" />
  <defs
     id="defs1">
    <style
       id="style1">.cls-1{fill:#4bb6cf;}.cls-1,.cls-2,.cls-3,.cls-4,.cls-5,.cls-6,.cls-7,.cls-8,.cls-9,.cls-10,.cls-11,.cls-12,.cls-13,.cls-14,.cls-15{stroke-width:0px;}.cls-2{fill:#2ab0cb;}.cls-3{fill:#26afcb;}.cls-4{fill:#44b4ce;}.cls-5{fill:#36b2cd;}.cls-6{fill:#3cb3cd;}.cls-7{fill:#0b7285;}.cls-8{fill:#1aaeca;}.cls-9{fill:#19afca;}.cls-10{fill:#1fafcb;}.cls-11{fill:#21afcb;}.cls-12{fill:#30b1cc;}.cls-13{fill:#fffcf9;}.cls-14{fill:#f49626;}.cls-15{fill:#f59e38;}</style>
  </defs>
  <path
     class="cls-7"
     d="m 803.15,502.30096 c 47.28,31.7 92.56,24.49 137.21,-0.18 18.38,-10.16 28.59,-27.86 35.65,-46.87 15.09,-40.61 15.85,-81.69 0.84,-122.56 -15.76,-42.92 -46.84,-64.28 -92.4,-64.01 -17.28,0.1 -34.17,3.01 -50.49,8.68 -43.93,15.26 -69.09,54.93 -68.57,103 0.97,90.74 0.43,181.5 0.87,272.25 0.04,8.21 -3.9,8.19 -9.82,8.17 -46.15,-0.12 -92.31,-0.34 -138.45,0.17 -9.06,0.1 -10.36,-3.11 -10.34,-11.01 0.24,-85.76 0.52,-171.52 -0.04,-257.28 -0.2,-31.13 -0.19,-62 6.24,-92.7 20.27,-96.79 88.05,-164.47 185.5,-183.23 60.68,-11.68 121.37,-12.23 181.65,3.69 6.27,1.65 9.05,4.77 11.32,10.87 16.79,45.03 49.13,70.68 97.3,75.24 6.02,0.57 8.75,3.32 11.48,7.77 23.17,37.74 36.47,79 42.16,122.55 8.31,63.57 3.31,126 -18.66,186.74 -19.79,54.7 -56.04,92.99 -109.46,116.71 -63.83,28.35 -129.25,36.77 -197.71,22.77 -10.71,-2.19 -14.94,-6.12 -14.67,-18.16 0.97,-43.57 0.38,-87.18 0.38,-130.77 v -11.86 z"
     id="path3" />
  <path
     class="cls-7"
     d="m 590.74,484.99096 c 0,54.66 -0.18,109.32 0.19,163.97 0.06,8.6 -1.76,11.59 -11.03,11.48 -44.34,-0.51 -88.7,-0.49 -133.05,0 -8.86,0.1 -11.31,-2.11 -11.28,-11.09 0.33,-97.17 0.15,-194.33 0.25,-291.5 0.02,-23.67 -3.22,-46.29 -18.46,-65.6 -21.48,-27.22 -60.13,-37.75 -95.16,-25.94 -31.62,10.66 -51.65,39.71 -51.89,77.29 -0.4,61.44 -0.09,122.89 -0.14,184.33 -0.01,16.86 -2.17,33.47 -7.27,49.57 -14.88,46.96 -53.22,77.32 -102.6,81.3 -35.35,2.85 -70.77,0.75 -106.14,1.52 -5.95,0.13 -7.04,-2.34 -7.02,-7.6 0.16,-46.8 0.26,-93.6 -0.09,-140.39 -0.05,-7.2 2.72,-8.09 8.74,-7.93 13.58,0.36 27.18,0.18 40.77,0.09 14,-0.09 17.96,-3.87 17.98,-17.75 0.09,-47.87 -0.26,-95.74 0.13,-143.61 0.31,-37.41 5.56,-74.06 22.21,-108.12 34.02,-69.6 91.05,-108.32 166.46,-120.39 55.77,-8.93 111.02,-5.13 162.28,20.2 82.83,40.94 123.34,109.59 124.95,201.2 0.87,49.64 0.16,99.31 0.16,148.96 z"
     id="path4" />
  <path
     class="cls-7"
     d="m 1485.08,369.43096 c 23,15.84 43.54,32.4 60.59,52.78 36.31,43.42 49.93,91.89 29.68,146.45 -19.92,53.69 -69.59,87.27 -126.66,87.27 -93.37,0 -186.75,-0.15 -280.12,0.23 -9.46,0.04 -11.9,-2.26 -11.76,-11.75 0.59,-39.65 0.6,-79.33 0,-118.98 -0.15,-9.95 1.76,-13.13 12.54,-13.04 69.4,0.57 138.81,0.31 208.21,0.25 4.62,0 9.32,-0.23 13.85,-1.06 15.07,-2.77 19.72,-13.72 11.55,-26.95 -5.05,-8.18 -12.95,-13.13 -20.95,-17.93 -47.15,-28.31 -94.45,-56.36 -141.35,-85.09 -18.92,-11.59 -35.73,-26.08 -51.77,-41.5 -37.02,-35.59 -55.14,-79.89 -61.43,-129.9 -0.65,-5.2 0.95,-7.39 6.03,-9.14 32.69,-11.27 55.17,-33.46 67.85,-65.42 1.93,-4.86 4.19,-6.53 9.26,-6.45 17.17,0.27 34.35,0.33 51.51,-0.02 5.9,-0.12 7.01,2.17 7.08,7.47 0.27,19.62 -1.28,39.26 1.51,58.85 5.24,36.9 33.27,70.81 66.25,79.61 48.86,13.04 93.74,-14.53 107.76,-66.02 6.21,-22.81 4.56,-46.09 4.37,-69.24 -0.07,-8.16 1.71,-10.89 10.47,-10.78 41.49,0.5 83,0.19 124.5,0.29 3.75,0 8.79,-2.09 8.87,5.38 0.41,43.28 0.38,86.46 -15.35,127.81 -16.9,44.42 -46.47,78.13 -86.7,102.9 -1.5,0.93 -2.91,2 -5.78,3.97 z"
     id="path5" />
  <path
     class="cls-9"
     d="m 1097.35,125.80096 c 0,19.29 0.08,38.57 -0.07,57.86 -0.02,2.81 1.59,7.47 -3.41,7.42 -4.99,-0.05 -3.27,-4.72 -3.29,-7.51 -0.13,-28.93 -0.05,-57.86 -0.09,-86.789996 -0.02,-16.77 -6.59,-23.35 -23.27,-23.38 -18.24,-0.03 -36.48,-0.27 -54.71,0.12 -7.35,0.16 -8.25,-1.85 -6.07,-8.62 12.81,-39.74 54.72,-67.9899995 95.95,-64.62999954 6.11,0.5 7.76,2.66000004 7.56,8.45000004 -0.39,11.4199995 -0.33,22.8599995 -0.06,34.2799995 0.36,15.13 7.49,22.28 22.56,22.31 6.08,0.01 10.52,1.16 14.78,6.25 5.62,6.72 15.38,5.97 20.68,-0.26 5.32,-6.25 4.78,-14.44 -1.33,-20.02 -6.24,-5.71 -15.81,-5.45 -20.46,2.27 -5.86,9.74 -13.76,7.3 -21.41,5.31 -8.21,-2.13 -8.61,-9.34 -8.5,-16.47 0.16,-10.71 0.37,-21.44 -0.07,-32.14 -0.3,-7.3899995 2.31,-8.1299995 8.84,-6.3299995 65.52,18.0999995 90.72,103.5199955 45.38,154.0999955 -12.69,14.16 -27.76,24.34 -46.13,29.87 -6.39,1.92 -8.19,0.78 -8.08,-5.84 0.29,-18.21 0.19,-36.43 0.06,-54.64 -0.05,-6.87 2.4,-12.64 9.21,-13.83 6.75,-1.18 14.32,-4.41 19.84,4.6 5.24,8.54 14.35,9.33 21.12,3.42 6.5,-5.68 7.04,-14.95 1.2,-20.88 -5.79,-5.879996 -15.51,-5.609996 -21.54,1.81 -3.85,4.74 -8.15,4.82 -13.19,4.89 -15.82,0.2 -22.81,7.07 -22.97,22.86 -0.18,17.86 0.02,35.72 -0.11,53.57 -0.02,2.53 1.42,6.63 -2.72,6.94 -5.38,0.4 -3.57,-4.37 -3.58,-7.07 -0.13,-37.5 -0.06,-75 -0.1,-112.509996 -0.02,-16.69 -6.51,-23.55 -23.01,-23.76 -5.66,-0.07 -9.89,-1.12 -13.89,-5.83 -5.88,-6.91 -14.84,-6.5 -20.61,-0.26 -5.82,6.28 -5.11,15.2 1.65,20.71 6.48,5.29 15.97,4.53 20.37,-3.41 5.23,-9.44 12.75,-6.28 19.56,-5.14 7.41,1.23 9.99,7.13 9.95,14.41 -0.11,19.29 -0.04,38.569996 -0.03,57.859996 z"
     id="path6" />
  <path
     class="cls-9"
     d="m 1084.48,138.10096 c 0,15 0.09,30 -0.1,45 -0.03,2.38 1.83,6.56 -2.7,6.7 -4.76,0.15 -4.04,-4 -4.04,-7.11 -0.03,-19.64 0,-39.29 -0.02,-58.93 -0.02,-19.45 -6.03,-25.789996 -25.29,-26.149996 -4.55,-0.08 -7.66,-1.05 -10.84,-4.93 -5.97,-7.3 -15.82,-7.3 -21.6,-1.05 -5.7,6.17 -5.03,15.649996 1.49,20.939996 7.03,5.71 15.78,4.74 21.12,-3.81 5.57,-8.919996 13.36,-5.34 19.99,-4.31 6.71,1.04 8.92,6.98 8.82,13.95 -0.29,20.35 -0.32,40.72 0.02,61.07 0.12,7.23 -1.65,8.35 -8.54,5.89 -39.59,-14.14 -66.32,-58.42 -60.55,-100.569996 0.7,-5.09 2.7,-6.57 7.47,-6.54 19.67,0.15 39.34,-0.21 59,0.18 11.63,0.23 15.64,4.88 15.75,16.82 0.13,14.279996 0.03,28.569996 0.03,42.859996 z"
     id="path7" />
  <path
     class="cls-15"
     d="m 1165.76,110.63096 c -0.26,5.58 -3.16,8.47 -8.66,8.42 -4.94,-0.05 -7.98,-2.68 -8.29,-7.65 -0.34,-5.52 2.77,-8.76 8.09,-8.99 5.32,-0.23 8.46,2.76 8.86,8.22 z"
     id="path32" />
  <path
     class="cls-15"
     d="m 1165.72,62.490964 c -0.6,5.29 -3.87,8.26 -9.13,7.88 -5.28,-0.39 -8.28,-3.86 -7.76,-9.34 0.47,-4.91 3.59,-7.67 8.5,-7.49 5.36,0.19 8.35,3.19 8.38,8.95 z"
     id="path33" />
  <path
     class="cls-15"
     d="m 1056.66,42.290964 c 5.25,0.75 8.32,3.58 8.1,9.13 -0.21,5.1 -3.46,7.8 -8.18,7.95 -5.39,0.18 -8.85,-3.06 -8.84,-8.41 0.01,-5.34 3.58,-8.12 8.92,-8.68 z"
     id="path34" />
  <path
     class="cls-15"
     d="m 1030.88,92.780964 c 5.24,0.96 8.18,3.93 7.78,9.399996 -0.36,4.95 -3.43,7.8 -8.26,7.73 -5.33,-0.08 -8.6,-3.36 -8.48,-8.7 0.13,-5.379996 3.66,-8.009996 8.96,-8.429996 z"
     id="path35" />
  <path
     class="cls-13"
     d="m 55.98,285.50096 c -0.95,7.69 -4.52,12.81 -12.64,13.44 -7.31,0.57 -14.12,-5.63 -14.35,-12.77 -0.22,-6.98 6.52,-13.79 13.74,-13.42 7.98,0.4 11.95,5.28 13.24,12.75 z"
     id="path36" />
  <path
     class="cls-14"
     d="m 0.02,275.09096 c 5.51,-12.23 12.38,-23.22 25.6,-28.61 2.96,-1.21 3.61,-4.09 4.23,-6.99 24.06,-111.69 95.15,-179.879996 202.04,-211.219996 110.4,-32.3699995 218.87,-25.9499995 322.59,27.55 13.37,6.89 25.74,15.39 37.46,24.82 2.59,2.08 4.47,5.45 8.81,1.57 42.03,-37.67 92.95,-56.8 147.14,-67.53 83.39,-16.5099995 166.78,-17.4199995 249.5,5.21 4.73,1.29 9.78,1.96 14.11,5.59 -8.3,11.73 -16.06,23.72 -19.8,37.69 -1.56,5.83 -5.16,4.74 -9.07,3.56 -46.75,-13.99 -94.85,-17.41 -143.18,-16.17 -62.41,1.6 -123.04,11.78 -177.61,44.9 -23.82,14.459996 -44.42,32.399996 -59.72,57.589996 -3.57,-3.11 -6.95,-5.95 -10.22,-8.91 C 526.57,84.960964 449.46,55.080964 361.62,54.940964 c -64.4,-0.1 -126.68,11.25 -182.27,46.599996 -54.76,34.83 -88.54,84.89 -105.5,146.93 -1.11,4.06 -0.89,7.23 1.9,10.86 11.31,14.69 13.06,30.73 4.12,47.05 -8.47,15.47 -22.23,23.29 -39.83,22.12 -18.89,-1.26 -31.82,-11.41 -38.25,-29.44 -0.33,-0.93 -1.18,-1.68 -1.79,-2.51 0,-7.15 0,-14.29 0,-21.44 z m 55.96,10.41 c -1.29,-7.47 -5.26,-12.34 -13.24,-12.75 -7.23,-0.37 -13.97,6.44 -13.74,13.42 0.23,7.13 7.04,13.34 14.35,12.77 8.12,-0.63 11.68,-5.75 12.64,-13.44 z"
     id="path1" />
</svg>
